<?xml version="1.0" encoding="utf-8"?>
<!-- Generator: Adobe Illustrator 16.0.4, SVG Export Plug-In . SVG Version: 6.00 Build 0)  -->
<!DOCTYPE svg PUBLIC "-//W3C//DTD SVG 1.1//EN" "http://www.w3.org/Graphics/SVG/1.1/DTD/svg11.dtd">
<svg version="1.1" id="Layer_1" xmlns="http://www.w3.org/2000/svg" xmlns:xlink="http://www.w3.org/1999/xlink" x="0px" y="0px"
	 width="430px" height="400px" viewBox="0 0 430 400" enable-background="new 0 0 430 400" xml:space="preserve">
<path fill="#00A99D" d="M217.632,22.517c-4.288-0.625-8.671-0.955-13.132-0.955c-49.8,0-90.171,40.371-90.171,90.171
	c0,21.234,7.343,40.75,19.624,56.157l70.829-56.157L217.632,22.517z"/>
<path fill="#22B573" d="M304.04,106.624c0-45.339-33.465-82.858-77.04-89.216l-12.848,89.216l77.022,46.438
	C299.34,139.497,304.04,123.61,304.04,106.624z"/>
<path fill="#009245" d="M204.5,201.905c32.814,0,61.532-17.53,77.307-43.734l-77.025-46.438l-70.829,56.157
	C150.474,188.618,175.934,201.905,204.5,201.905z"/>
<rect x="84.668" y="246.665" fill="#22B573" width="40.146" height="127.007"/>
<rect x="136.238" y="305.789" fill="#22B573" width="40.146" height="67.883"/>
<rect x="187.807" y="283.161" fill="#22B573" width="40.146" height="90.511"/>
<rect x="239.375" y="305.789" fill="#22B573" width="40.146" height="67.883"/>
<rect x="290.944" y="283.161" fill="#22B573" width="40.146" height="90.511"/>
<polyline fill="none" stroke="#ED1C24" stroke-width="3" stroke-miterlimit="10" points="84.668,279.302 124.814,260.323 
	159.664,269.812 207.88,306.309 245.065,288.061 306.38,324.557 331.091,287.331 "/>
<line fill="none" stroke="#000000" stroke-width="5" stroke-miterlimit="10" x1="74.993" y1="373.672" x2="345.796" y2="373.672"/>
<line fill="none" stroke="#000000" stroke-width="5" stroke-miterlimit="10" x1="84.668" y1="220.388" x2="84.668" y2="380.241"/>
</svg>
